<svg width="24" height="24" viewBox="0 0 24 24" fill="none" xmlns="http://www.w3.org/2000/svg">
<path d="M15.0635 0H5.42416C4.01594 0 2.86975 1.14614 2.86975 2.55436V21.4456C2.86975 22.8538 4.01594 24 5.42416 24H18.5767C19.984 24 21.1303 22.8538 21.1303 21.4456V6.0455L15.0635 0ZM18.5766 22.4349H5.42416C4.87889 22.4349 4.43487 21.9916 4.43487 21.4456V2.55436C4.43487 2.00914 4.87889 1.56587 5.42416 1.56587L14.4783 1.55646V4.90244C14.4783 5.88073 15.2714 6.67469 16.2497 6.67469L19.5282 6.66528L19.5651 21.4456C19.5651 21.9916 19.1218 22.4349 18.5766 22.4349Z" fill="#333333"/>
</svg>
