<svg width="24" height="24" viewBox="0 0 24 24" fill="none" xmlns="http://www.w3.org/2000/svg">
<path d="M15.7033 0H6.06395C4.65568 0 3.50954 1.14694 3.50954 2.55436V12H3.26C2.69164 12 2.23074 12.4604 2.23074 13.0293V19.2717C2.23074 19.8405 2.69164 20.3009 3.26 20.3009H3.50954V21.4456C3.50954 22.8546 4.65568 24 6.0639 24H19.2163C20.6237 24 21.7699 22.8545 21.7699 21.4456V6.0455L15.7033 0ZM3.93355 13.8867C4.2933 13.8295 4.76196 13.7973 5.2567 13.7973C6.07884 13.7973 6.61196 13.9448 7.0297 14.2594C7.47924 14.5936 7.76163 15.1271 7.76163 15.8913C7.76163 16.7197 7.45998 17.2916 7.04224 17.6446C6.58642 18.0234 5.89257 18.2032 5.0449 18.2032C4.53736 18.2032 4.17761 18.171 3.9336 18.1389V13.8867H3.93355ZM19.2164 22.4356H6.06395C5.51863 22.4356 5.07461 21.9916 5.07461 21.4456V20.3009H17.3354C17.9038 20.3009 18.3648 19.8405 18.3648 19.2717V13.0293C18.3648 12.4604 17.9039 12 17.3354 12H5.07461V2.55436C5.07461 2.00989 5.51863 1.56587 6.06395 1.56587L15.1181 1.55641V4.90314C15.1181 5.88068 15.9112 6.67459 16.8894 6.67459L20.168 6.66518L20.2049 21.4455C20.2049 21.9916 19.7616 22.4356 19.2164 22.4356ZM8.2072 16.0261C8.2072 14.7286 9.0357 13.7589 10.3141 13.7589C11.6438 13.7589 12.3695 14.7544 12.3695 15.9492C12.3695 17.3684 11.5089 18.229 10.2434 18.229C8.95885 18.229 8.2072 17.2595 8.2072 16.0261ZM15.2302 17.4132C15.5256 17.4132 15.8531 17.3488 16.0461 17.2719L16.1936 18.0361C16.0139 18.1263 15.6091 18.2228 15.0827 18.2228C13.5859 18.2228 12.8151 17.2916 12.8151 16.0584C12.8151 14.581 13.8687 13.7589 15.1788 13.7589C15.6864 13.7589 16.0716 13.8617 16.245 13.9511L16.046 14.7286C15.8468 14.6446 15.5706 14.5678 15.2239 14.5678C14.4464 14.5678 13.8428 15.0369 13.8428 16.0003C13.8429 16.8672 14.3566 17.4132 15.2302 17.4132Z" fill="#7A66FF"/>
<path d="M6.72102 15.9232C6.7273 15.0235 6.20054 14.5488 5.35909 14.5488C5.14056 14.5488 4.99934 14.5676 4.91581 14.5872V17.4193C4.99934 17.439 5.13434 17.439 5.25635 17.439C6.14285 17.4452 6.72102 16.9572 6.72102 15.9232Z" fill="#7A66FF"/>
<path d="M11.3355 15.9807C11.3355 15.204 10.9629 14.5356 10.2885 14.5356C9.62684 14.5356 9.24121 15.1655 9.24121 16.0066C9.24121 16.8547 9.63973 17.4516 10.2949 17.4516C10.9566 17.4516 11.3355 16.8224 11.3355 15.9807Z" fill="#7A66FF"/>
</svg>
