<svg width="24" height="24" viewBox="0 0 24 24" fill="none" xmlns="http://www.w3.org/2000/svg">
<path d="M7.5167 5.8924C7.5167 5.49549 7.24133 5.25879 6.75534 5.25879C6.55696 5.25879 6.42257 5.27842 6.35223 5.29711V6.57053C6.43541 6.58927 6.53783 6.59551 6.67881 6.59551C7.19677 6.59551 7.5167 6.33383 7.5167 5.8924Z" fill="#F48015"/>
<path d="M17.9586 0.050293H8.35935C6.95705 0.050293 5.81558 1.19245 5.81558 2.59396V2.8666H1.02502C0.458975 2.8666 0 3.32528 0 3.89172V9.50813C0 10.0745 0.458975 10.5331 1.02502 10.5331H5.81558V21.4065C5.81558 22.8097 6.957 23.9503 8.35935 23.9503H21.457C22.8585 23.9503 24 22.8096 24 21.4065V6.0706L17.9586 0.050293ZM4.57225 7.28072C4.57225 8.50879 3.984 8.93698 3.03715 8.93698C2.81329 8.93698 2.51913 8.89866 2.32739 8.83467L2.43595 8.04793C2.57034 8.09244 2.74299 8.12452 2.93483 8.12452C3.34419 8.12452 3.60002 7.93932 3.60002 7.26749V4.55572H4.57225V7.28072ZM5.3863 8.86664V4.61273C5.6867 4.56192 6.10894 4.5237 6.70394 4.5237C7.30504 4.5237 7.73362 4.63856 8.02153 4.86901C8.2965 5.08618 8.48204 5.44482 8.48204 5.86667C8.48204 6.28857 8.34146 6.64716 8.08553 6.89011C7.75276 7.20339 7.26057 7.34408 6.68481 7.34408C6.55667 7.34408 6.44181 7.33778 6.35194 7.32529V8.86669H5.3863V8.86664ZM21.457 22.3925H8.35935C7.81636 22.3925 7.37424 21.9503 7.37424 21.4065V10.5331H14.7082C15.2742 10.5331 15.7332 10.0745 15.7332 9.50813V3.89172C15.7332 3.32528 15.2742 2.8666 14.7082 2.8666H7.37424V2.59396C7.37424 2.05186 7.81636 1.60964 8.35935 1.60964L17.3758 1.60027V4.93306C17.3758 5.90653 18.1656 6.69713 19.1398 6.69713L22.4047 6.68781L22.4414 21.4065C22.4414 21.9503 22 22.3925 21.457 22.3925ZM11.2859 8.12452C11.5098 8.12452 11.6886 8.09943 11.7656 8.06042V7.15883H11.1004V6.39792H12.7058V8.66821C12.405 8.77052 11.8359 8.9112 11.2668 8.9112C10.4796 8.9112 9.91052 8.71352 9.51405 8.32914C9.11754 7.95811 8.89997 7.39553 8.90622 6.76192C8.91286 5.32913 9.95543 4.51037 11.3691 4.51037C11.9253 4.51037 12.3539 4.61977 12.5652 4.72134L12.3606 5.50183C12.1239 5.39947 11.8293 5.31668 11.3562 5.31668C10.5438 5.31668 9.9297 5.7768 9.9297 6.71126C9.92966 7.60026 10.4863 8.12452 11.2859 8.12452Z" fill="#F48015"/>
<path d="M19.1043 12.5356H10.7114C10.3222 12.5356 10.007 12.8513 10.007 13.2395V19.6193C10.007 20.0076 10.3222 20.3232 10.7114 20.3232H19.1043C19.4934 20.3232 19.8086 20.0076 19.8086 19.6193V13.2395C19.8086 12.8513 19.4934 12.5356 19.1043 12.5356ZM18.4469 19.1155C18.3824 19.2381 18.2547 19.3147 18.1152 19.3147H15.2711C15.1363 19.3147 15.0109 19.2428 14.945 19.1256C14.8785 19.0076 14.8805 18.8631 14.9504 18.7475L16.2766 16.5458C16.3422 16.4365 16.4585 16.3686 16.5855 16.3647C16.5899 16.3647 16.5938 16.3647 16.5977 16.3647C16.7204 16.3647 16.8356 16.4256 16.9055 16.5271L18.4234 18.7288C18.5023 18.8435 18.5117 18.9913 18.4469 19.1155ZM17.7797 13.2037C18.464 13.2037 19.0187 13.7576 19.0187 14.442C19.0187 15.1264 18.4641 15.6803 17.7797 15.6803C17.0961 15.6803 16.5414 15.1264 16.5414 14.442C16.5414 13.7576 17.0961 13.2037 17.7797 13.2037ZM11.5417 19.3139C11.4066 19.3139 11.282 19.2412 11.2156 19.124C11.1495 19.006 11.1516 18.8623 11.2211 18.7467L13.2194 15.4294C13.285 15.3209 13.4015 15.2522 13.5284 15.2483C13.6554 15.2443 13.7757 15.3053 13.848 15.41L15.1026 17.2288L14.3906 18.4108C14.2245 18.6865 14.2073 19.0201 14.3229 19.3139H11.5417V19.3139Z" fill="#F48015"/>
</svg>
