<svg width="24" height="24" viewBox="0 0 24 24" fill="none" xmlns="http://www.w3.org/2000/svg">
<path d="M15.7033 0H6.0639C4.65563 0 3.50949 1.14694 3.50949 2.55436V12H3.26C2.69164 12 2.23074 12.4604 2.23074 13.0293V19.2717C2.23074 19.8405 2.69164 20.3009 3.26 20.3009H3.50949V21.4456C3.50949 22.8546 4.65563 24 6.0639 24H19.2163C20.6238 24 21.7699 22.8545 21.7699 21.4456V6.0455L15.7033 0ZM4.70471 14.0985H6.00855L6.43256 15.5436C6.56751 16.0442 6.70251 16.5839 6.79898 17.0915H6.81819C6.94025 16.5902 7.08774 16.019 7.22926 15.5373L7.69175 14.0985H8.9697L9.20739 18.4275H8.25031L8.18604 16.7706C8.16678 16.2497 8.14756 15.6205 8.14756 14.9913H8.1284C7.99345 15.5436 7.8138 16.1603 7.6467 16.6678L7.11985 18.357H6.3557L5.89321 16.6804C5.75165 16.1728 5.6042 15.5562 5.50141 14.9913H5.48842C5.46293 15.5759 5.44332 16.2434 5.41121 16.7832L5.33426 18.4275H4.42854L4.70471 14.0985ZM19.2163 22.4356H6.0639C5.51858 22.4356 5.07461 21.9916 5.07461 21.4456V20.3009H17.3355C17.9038 20.3009 18.3648 19.8405 18.3648 19.2717V13.0293C18.3648 12.4604 17.9038 12 17.3355 12H5.07461V2.55436C5.07461 2.00989 5.51858 1.56587 6.0639 1.56587L15.118 1.55641V4.90314C15.118 5.88068 15.9112 6.67459 16.8894 6.67459L20.168 6.66518L20.2049 21.4455C20.2048 21.9916 19.7616 22.4356 19.2163 22.4356ZM9.96217 18.4275V14.1558C10.2638 14.1049 10.6878 14.0664 11.2853 14.0664C11.8889 14.0664 12.3193 14.1817 12.6083 14.4131C12.8845 14.6313 13.0708 14.9913 13.0708 15.415C13.0708 15.8386 12.9296 16.1988 12.6727 16.4427C12.3385 16.7573 11.8443 16.8986 11.266 16.8986C11.1374 16.8986 11.022 16.8922 10.9318 16.8797V18.4276H9.96217V18.4275ZM14.6081 16.5713H14.2099V15.8708H14.5888C14.9163 15.8645 15.3337 15.743 15.3337 15.3891C15.3337 15.1388 15.1282 14.9529 14.7171 14.9529C14.3766 14.9529 14.0173 15.1004 13.8435 15.2031L13.6447 14.4963C13.8949 14.3362 14.3962 14.1817 14.9356 14.1817C15.8283 14.1817 16.323 14.6509 16.323 15.2219C16.323 15.6652 16.0727 16.0119 15.5589 16.1924V16.205C16.0597 16.2952 16.4641 16.6742 16.4641 17.2201C16.4641 17.9584 15.8154 18.4982 14.756 18.4982C14.2162 18.4982 13.7599 18.3569 13.516 18.2024L13.7152 17.4705C13.8886 17.5607 14.2868 17.7278 14.6849 17.7278C15.1925 17.7278 15.4494 17.483 15.4494 17.1684C15.4495 16.7573 15.0383 16.5713 14.6081 16.5713Z" fill="#109CF1"/>
<path d="M12.1012 15.441C12.1012 15.0424 11.8247 14.8047 11.3367 14.8047C11.1375 14.8047 11.0025 14.8244 10.9319 14.8432V16.122C11.0155 16.1408 11.1183 16.1471 11.2598 16.1471C11.78 16.1471 12.1012 15.8843 12.1012 15.441Z" fill="#109CF1"/>
</svg>
