<svg width="24" height="24" viewBox="0 0 24 24" fill="none" xmlns="http://www.w3.org/2000/svg">
<path d="M7.07041 15.441C7.07041 15.0424 6.79384 14.8047 6.30587 14.8047C6.10661 14.8047 5.97166 14.8244 5.90108 14.8432V16.122C5.98465 16.1408 6.0874 16.1471 6.22901 16.1471C6.74914 16.1471 7.07041 15.8843 7.07041 15.441Z" fill="#E91616"/>
<path d="M10.0908 14.8179C9.87222 14.8179 9.731 14.8367 9.64748 14.8563V17.6885C9.73105 17.7081 9.866 17.7081 9.98801 17.7081C10.8745 17.7143 11.4527 17.2264 11.4527 16.1924C11.459 15.2932 10.9321 14.8179 10.0908 14.8179Z" fill="#E91616"/>
<path d="M15.7032 0H6.06384C4.65562 0 3.50948 1.14694 3.50948 2.55436V12H3.25999C2.69163 12 2.23068 12.4604 2.23068 13.0293V19.2717C2.23068 19.8405 2.69158 20.3009 3.25999 20.3009H3.50948V21.4456C3.50948 22.8546 4.65562 24 6.06384 24H19.2164C20.6237 24 21.77 22.8545 21.77 21.4456V6.0455L15.7032 0ZM4.93099 14.1558C5.23265 14.1049 5.65666 14.0664 6.25405 14.0664C6.85775 14.0664 7.28803 14.1817 7.57715 14.4131C7.85331 14.6313 8.03968 14.9913 8.03968 15.415C8.03968 15.8386 7.89846 16.1988 7.64151 16.4427C7.3073 16.7573 6.81305 16.8986 6.23488 16.8986C6.1062 16.8986 5.99087 16.8922 5.90067 16.8797V18.4276H4.93099V14.1558ZM19.2164 22.4356H6.06384C5.51857 22.4356 5.07455 21.9916 5.07455 21.4456V20.3009H17.3354C17.9039 20.3009 18.3647 19.8405 18.3647 19.2717V13.0293C18.3647 12.4604 17.9039 12 17.3354 12H5.07455V2.55436C5.07455 2.00989 5.51862 1.56587 6.06384 1.56587L15.118 1.55641V4.90314C15.118 5.88068 15.9111 6.67459 16.8894 6.67459L20.1679 6.66518L20.2048 21.4455C20.2048 21.9916 19.7616 22.4356 19.2164 22.4356ZM8.66495 18.408V14.1558C9.02459 14.0986 9.49335 14.0664 9.98805 14.0664C10.8102 14.0664 11.3433 14.2139 11.761 14.5285C12.2106 14.8627 12.493 15.3954 12.493 16.1603C12.493 16.9887 12.1913 17.5607 11.7735 17.9136C11.3177 18.2925 10.6239 18.4722 9.77619 18.4722C9.26856 18.4722 8.90891 18.4401 8.66495 18.408ZM15.675 15.8905V16.6867H14.1205V18.4276H13.1379V14.0986H15.7841V14.9011H14.1205V15.8905H15.675Z" fill="#E91616"/>
</svg>
