<svg width="24" height="24" viewBox="0 0 24 24" fill="none" xmlns="http://www.w3.org/2000/svg">
<path d="M6.27281 15.441C6.27281 15.0424 5.99669 14.8047 5.50867 14.8047C5.3094 14.8047 5.17446 14.8244 5.10382 14.8432V16.122C5.18705 16.1408 5.28979 16.1471 5.43101 16.1471C5.95114 16.1471 6.27281 15.8843 6.27281 15.441Z" fill="#F2994A"/>
<path d="M15.7032 0H6.06386C4.65559 0 3.50945 1.14694 3.50945 2.55436V12H3.25991C2.69115 12 2.23065 12.4604 2.23065 13.0293V19.2717C2.23065 19.8405 2.69115 20.3009 3.25991 20.3009H3.50945V21.4456C3.50945 22.8546 4.65559 24 6.06386 24H19.2162C20.6237 24 21.7699 22.8545 21.7699 21.4456V6.0455L15.7032 0ZM4.13466 14.1558C4.43592 14.1049 4.85958 14.0664 5.45737 14.0664C6.06142 14.0664 6.49136 14.1817 6.78091 14.4131C7.05698 14.6313 7.24295 14.9913 7.24295 15.415C7.24295 15.8386 7.10173 16.1988 6.84518 16.4427C6.51097 16.7573 6.01593 16.8986 5.43855 16.8986C5.30987 16.8986 5.19379 16.8922 5.10429 16.8797V18.4276H4.13466V14.1558ZM19.2162 22.4356H6.06386C5.51859 22.4356 5.07452 21.9916 5.07452 21.4456V20.3009H17.3351C17.9038 20.3009 18.3643 19.8405 18.3643 19.2717V13.0293C18.3643 12.4604 17.9038 12 17.3351 12H5.07452V2.55436C5.07452 2.00989 5.51859 1.56587 6.06386 1.56587L15.118 1.55641V4.90314C15.118 5.88068 15.9112 6.67459 16.8894 6.67459L20.1679 6.66518L20.2048 21.4455C20.2048 21.9916 19.7615 22.4356 19.2162 22.4356ZM10.5535 15.364V14.0985H11.4527V18.4275H10.425L9.50004 16.7573C9.24274 16.2952 8.96025 15.7358 8.74849 15.229L8.72958 15.2353C8.75476 15.8065 8.76811 16.4167 8.76811 17.1237V18.4275H7.86822V14.0985H9.01207L9.91111 15.6848C10.1685 16.1406 10.425 16.6804 10.618 17.1684H10.6368C10.5725 16.5973 10.5535 16.012 10.5535 15.364ZM14.4927 17.6822C14.7178 17.6822 14.8975 17.6563 14.9744 17.618V16.7126H14.3068V15.9484H15.919V18.2282C15.617 18.331 15.045 18.4722 14.4739 18.4722C13.6839 18.4722 13.112 18.2729 12.7134 17.8878C12.3157 17.5151 12.0968 16.9503 12.1038 16.314C12.1101 14.8752 13.1567 14.053 14.5767 14.053C15.1353 14.053 15.5659 14.1621 15.7778 14.2656L15.5723 15.0486C15.3346 14.9459 15.0388 14.8627 14.5634 14.8627C13.7483 14.8627 13.1316 15.3248 13.1316 16.263C13.1315 17.1559 13.6901 17.6822 14.4927 17.6822Z" fill="#F2994A"/>
</svg>
