<svg width="24" height="24" viewBox="0 0 24 24" fill="none" xmlns="http://www.w3.org/2000/svg">
<path d="M8.19234 5.86674C8.19234 5.46821 7.91612 5.23047 7.42655 5.23047C7.22883 5.23047 7.09398 5.25018 7.02335 5.269V6.54776C7.10653 6.56657 7.20852 6.57284 7.34969 6.57284C7.87067 6.57284 8.19234 6.31006 8.19234 5.86674Z" fill="#F44336"/>
<path d="M3.69389 5.23047C3.49458 5.23047 3.35963 5.25018 3.28909 5.269V6.54776C3.37222 6.56657 3.47497 6.57284 3.61703 6.57284C4.13632 6.57284 4.45798 6.31006 4.45798 5.86674C4.45798 5.46826 4.18186 5.23047 3.69389 5.23047Z" fill="#F44336"/>
<path d="M17.7792 0H8.13973C6.73155 0 5.58536 1.14694 5.58536 2.55437V3.02746H1.18347C0.614608 3.02746 0.15416 3.48796 0.15416 4.05672V9.29811C0.15416 9.86688 0.614608 10.3274 1.18347 10.3274H5.58536V21.4456C5.58536 22.8546 6.73155 24 8.13973 24H21.2923C22.6997 24 23.8459 22.8546 23.8459 21.4456V6.04551L17.7792 0ZM5.02914 6.86839C4.69493 7.18299 4.20068 7.32426 3.6233 7.32426C3.49458 7.32426 3.37849 7.31794 3.28909 7.30544V8.85325H2.31941V4.58153C2.62062 4.53056 3.04433 4.49213 3.64212 4.49213C4.24623 4.49213 4.67606 4.60747 4.96478 4.83889C5.24089 5.05696 5.42771 5.41711 5.42771 5.84072C5.42771 6.26443 5.28644 6.62448 5.02914 6.86839ZM7.0234 8.8533H6.05213V4.58153C6.35503 4.53056 6.77864 4.49213 7.37638 4.49213C7.98054 4.49213 8.41042 4.60747 8.69909 4.83889C8.97531 5.05696 9.16197 5.41711 9.16197 5.84072C9.16197 6.26443 9.02075 6.62448 8.76345 6.86839C8.42924 7.18299 7.93504 7.32426 7.35607 7.32426C7.22889 7.32426 7.1128 7.31794 7.0234 7.30544V8.8533ZM21.2922 22.4357H8.13973C7.59451 22.4357 7.15054 21.9916 7.15054 21.4456V10.3274H14.106C14.6748 10.3274 15.1353 9.86688 15.1353 9.29811V4.05672C15.1353 3.48796 14.6748 3.02746 14.106 3.02746H7.15054V2.55437C7.15054 2.00989 7.59451 1.56587 8.13973 1.56587L17.1939 1.55646V4.90325C17.1939 5.88074 17.9871 6.67466 18.9654 6.67466L22.2439 6.66525L22.2808 21.4456C22.2808 21.9916 21.8375 22.4357 21.2922 22.4357ZM9.46014 5.34647V4.52429H12.7864V5.34647H11.605V8.85325H10.6228V5.34647H9.46014Z" fill="#F44336"/>
<path d="M18.7653 15.1442C18.6727 15.0908 18.5621 15.0798 18.4617 15.1128L14.9062 16.248C14.7712 16.2904 14.6253 16.2551 14.5241 16.1562C14.4237 16.0581 14.3853 15.9113 14.426 15.7772L15.4914 12.2014C15.522 12.0994 15.5078 11.9888 15.453 11.8977C15.3996 11.8068 15.3087 11.7425 15.2051 11.7204C14.8874 11.6538 14.5579 11.6177 14.2212 11.6177C11.543 11.6177 9.37218 13.7892 9.37218 16.466C9.37218 19.1444 11.543 21.3136 14.2212 21.3136C16.8973 21.3136 19.0681 19.1444 19.0681 16.466C19.0681 16.0965 19.0265 15.7356 18.9473 15.3897C18.9238 15.2853 18.8578 15.1967 18.7653 15.1442Z" fill="#F44336"/>
<path d="M16.9734 10.2081C16.7813 10.1509 16.578 10.2599 16.5208 10.4529L15.1368 15.0973C15.0983 15.2267 15.1345 15.3672 15.231 15.4605C15.2992 15.528 15.3918 15.5649 15.4852 15.5649C15.5228 15.5649 15.5597 15.5601 15.5958 15.5476L20.2143 14.0735C20.4057 14.0115 20.5116 13.8075 20.4497 13.6161C19.9264 11.9733 18.6272 10.6993 16.9734 10.2081ZM16.0304 14.6454L17.1107 11.0233C18.2545 11.4664 19.1662 12.3601 19.633 13.4953L16.0304 14.6454Z" fill="#F44336"/>
</svg>
