<svg width="24" height="24" viewBox="0 0 24 24" fill="none" xmlns="http://www.w3.org/2000/svg">
<path d="M17.9586 0.050293H8.35935C6.95705 0.050293 5.81558 1.19245 5.81558 2.59401V2.86665H1.02502C0.458975 2.86665 0 3.32528 0 3.89172V9.50813C0 10.0745 0.458975 10.5331 1.02502 10.5331H5.81558V21.4065C5.81558 22.8096 6.957 23.9503 8.35935 23.9503H21.457C22.8585 23.9503 24 22.8096 24 21.4065V6.0706L17.9586 0.050293ZM5.54295 5.37448H4.36599V8.86664H3.38712V5.37448H2.22964V4.55572H5.54295V5.37448ZM9.57463 8.86664H8.44878L8.05851 8.08615C7.89874 7.7854 7.79643 7.56194 7.67458 7.31195H7.66204C7.57217 7.56194 7.46366 7.7854 7.32923 8.08615L6.97108 8.86664H5.85822L7.10541 6.68538L5.90313 4.55567H7.02223L7.39957 5.34241C7.52776 5.60414 7.62382 5.81586 7.72614 6.05876H7.73863C7.84099 5.78379 7.92422 5.59165 8.03318 5.34241L8.39767 4.55567H9.51054L8.29526 6.6596L9.57463 8.86664ZM21.457 22.3925H8.35935C7.81636 22.3925 7.37424 21.9503 7.37424 21.4065V10.5331H14.7082C15.2742 10.5331 15.7332 10.0745 15.7332 9.50813V3.89172C15.7332 3.32528 15.2742 2.86665 14.7082 2.86665H7.37424V2.59401C7.37424 2.05181 7.81636 1.60964 8.35935 1.60964L17.3758 1.60027V4.93311C17.3758 5.90653 18.1656 6.69713 19.1398 6.69713L22.4047 6.68781L22.4414 21.4066C22.4414 21.9503 22 22.3925 21.457 22.3925ZM9.81326 5.37448V4.55572H13.1265V5.37453H11.9496V8.86669H10.9707V5.37453H9.81326V5.37448Z" fill="#0B8ECC"/>
<path d="M19.941 12.4014H9.87421C9.43239 12.4014 9.07419 12.7592 9.07419 13.2014C9.07419 13.6435 9.43239 14.0014 9.87421 14.0014H19.941C20.3828 14.0014 20.741 13.6435 20.741 13.2014C20.741 12.7592 20.3828 12.4014 19.941 12.4014Z" fill="#0B8ECC"/>
<path d="M19.941 15.6011H9.87421C9.43239 15.6011 9.07419 15.9588 9.07419 16.4011C9.07419 16.8433 9.43239 17.2011 9.87421 17.2011H19.941C20.3828 17.2011 20.741 16.8433 20.741 16.4011C20.741 15.9588 20.3828 15.6011 19.941 15.6011Z" fill="#0B8ECC"/>
<path d="M19.941 18.8008H9.87421C9.43239 18.8008 9.07419 19.1585 9.07419 19.6008C9.07419 20.043 9.43239 20.4008 9.87421 20.4008H19.941C20.3828 20.4008 20.741 20.043 20.741 19.6008C20.741 19.1585 20.3828 18.8008 19.941 18.8008Z" fill="#0B8ECC"/>
</svg>
