<svg width="24" height="24" viewBox="0 0 24 24" fill="none" xmlns="http://www.w3.org/2000/svg">
<path d="M15.7033 0H6.06389C4.65567 0 3.50948 1.14694 3.50948 2.55436V12H3.25994C2.69158 12 2.23068 12.4604 2.23068 13.0293V19.2717C2.23068 19.8405 2.69158 20.3009 3.25994 20.3009H3.50948V21.4456C3.50948 22.8546 4.65562 24 6.06389 24H19.2163C20.6238 24 21.7699 22.8545 21.7699 21.4456V6.0455L15.7033 0ZM4.851 14.0985H5.97479L6.3537 14.8885C6.48233 15.1514 6.5789 15.364 6.68164 15.6079H6.69418C6.79692 15.3318 6.88055 15.1388 6.98996 14.8885L7.35598 14.0985H8.4735L7.25314 16.2112L8.53776 18.4275H7.4073L7.01545 17.6437C6.85502 17.3417 6.75227 17.1173 6.62982 16.8663H6.61728C6.52703 17.1173 6.41806 17.3417 6.28307 17.6437L5.92332 18.4275H4.8058L6.05832 16.2371L4.851 14.0985ZM19.2163 22.4356H6.06389C5.51857 22.4356 5.0746 21.9916 5.0746 21.4456V20.3009H17.3354C17.9038 20.3009 18.3648 19.8405 18.3648 19.2717V13.0293C18.3648 12.4604 17.9038 12 17.3354 12H5.0746V2.55436C5.0746 2.00989 5.51862 1.56587 6.06389 1.56587L15.118 1.55641V4.90314C15.118 5.88068 15.9112 6.67459 16.8894 6.67459L20.1679 6.66518L20.2048 21.4455C20.2048 21.9916 19.7616 22.4356 19.2163 22.4356ZM11.7709 17.6054V18.4276H9.06661V14.0986H10.0493V17.6054H11.7709ZM13.4297 16.6098C12.7103 16.3596 12.2412 15.9611 12.2412 15.3318C12.2412 14.5927 12.8578 14.028 13.8792 14.028C14.3676 14.028 14.7269 14.1307 14.9842 14.2461L14.7657 15.0361C14.5924 14.9529 14.284 14.8305 13.8599 14.8305C13.4359 14.8305 13.2304 15.0236 13.2304 15.248C13.2304 15.5241 13.4744 15.6465 14.0334 15.8582C14.7979 16.1407 15.1576 16.5393 15.1576 17.1496C15.1576 17.8753 14.5986 18.492 13.4105 18.492C12.9158 18.492 12.4274 18.3633 12.1835 18.2283L12.3828 17.4194C12.6459 17.5544 13.0507 17.6886 13.4681 17.6886C13.9176 17.6886 14.1554 17.5026 14.1554 17.2201C14.1554 16.9503 13.9499 16.7957 13.4297 16.6098Z" fill="#07BB4A"/>
</svg>
