<svg width="24" height="24" viewBox="0 0 24 24" fill="none" xmlns="http://www.w3.org/2000/svg">
<path d="M15.0635 0H5.42416C4.01589 0 2.86975 1.14619 2.86975 2.55436V21.4456C2.86975 22.8538 4.01589 24 5.42416 24H18.5766C19.984 24 21.1302 22.8538 21.1302 21.4456V6.0455L15.0635 0ZM18.5766 22.4349H5.42416C4.87889 22.4349 4.43482 21.9916 4.43482 21.4456V2.55436C4.43482 2.00914 4.87889 1.56587 5.42416 1.56587L6.65507 1.56477V2.69633C6.65507 2.91719 6.83398 3.0961 7.05479 3.0961H8.56297V4.76944H7.05479C6.83398 4.76944 6.65507 4.94834 6.65507 5.16915V6.04316C6.65507 6.26402 6.83398 6.44278 7.05479 6.44278H8.56297V8.11617H7.05479C6.83398 8.11617 6.65507 8.29507 6.65507 8.51588V9.38989C6.65507 9.61075 6.83398 9.7895 7.05479 9.7895H8.56297V11.0632C8.56297 11.2841 8.74187 11.4629 8.96274 11.4629H11.168C11.3884 11.4629 11.5673 11.284 11.5673 11.0632V10.1893C11.5673 9.96846 11.3884 9.7895 11.168 9.7895H9.65943V8.11617H11.1681C11.3885 8.11617 11.5674 7.93731 11.5674 7.7165V6.84254C11.5674 6.62173 11.3885 6.44278 11.1681 6.44278H9.65943V4.76944H11.1681C11.3885 4.76944 11.5674 4.59058 11.5674 4.36977V3.49586C11.5674 3.275 11.3885 3.09615 11.1681 3.09615H9.65943V1.56154L14.4783 1.55651V4.90244C14.4783 5.88073 15.2715 6.67474 16.2497 6.67474L19.5282 6.66538L19.5651 21.4457C19.5651 21.9916 19.1219 22.4349 18.5766 22.4349Z" fill="#606060"/>
<path d="M10.065 15.0221V12.9769C10.065 12.7564 9.88617 12.5776 9.6657 12.5776H8.5564C8.33593 12.5776 8.15708 12.7565 8.15708 12.9769V15.0217L7.54008 16.8344C7.36745 17.3396 7.45028 17.9009 7.76134 18.3359C8.07241 18.7701 8.57681 19.0295 9.11103 19.0295C9.64534 19.0295 10.1498 18.7701 10.4609 18.3359C10.7719 17.9009 10.8547 17.3396 10.6821 16.8348L10.065 15.0221ZM9.80727 17.8684C9.4872 18.3164 8.73485 18.3164 8.41473 17.8684C8.2543 17.644 8.21159 17.3546 8.30024 17.0937L8.50732 16.4857H9.71468L9.92181 17.0941C10.0105 17.3546 9.96766 17.644 9.80727 17.8684Z" fill="#606060"/>
</svg>
