<svg width="120" height="36" viewBox="0 0 120 36" fill="none" xmlns="http://www.w3.org/2000/svg">
<path d="M26.4421 32.5537L15.5335 13.5988C15.1845 12.9973 15.0005 12.3143 15 11.6188C14.9995 10.9234 15.1826 10.2401 15.5308 9.63812C15.879 9.0361 16.3799 8.53664 16.9829 8.19023C17.5859 7.84381 18.2697 7.66271 18.9652 7.66523H40.7816C41.477 7.66283 42.1607 7.84402 42.7636 8.19048C43.3666 8.53694 43.8674 9.0364 44.2155 9.6384C44.5636 10.2404 44.7466 10.9236 44.7461 11.619C44.7456 12.3144 44.5615 12.9974 44.2126 13.5988L33.304 32.5537C32.9569 33.1567 32.457 33.6576 31.8547 34.0058C31.2523 34.3541 30.5688 34.5375 29.873 34.5375C29.1773 34.5375 28.4938 34.3541 27.8914 34.0058C27.2891 33.6576 26.7892 33.1567 26.4421 32.5537V32.5537Z" fill="#7A66FF"/>
<path d="M29.3274 14.7575L29.2528 5.45093C29.2528 5.44169 29.2528 5.43312 29.2528 5.42388C29.2524 4.72875 29.435 4.04575 29.7822 3.44358C30.1295 2.84141 30.6292 2.34129 31.2311 1.99353C31.833 1.64578 32.5159 1.46263 33.211 1.46252C33.9061 1.46241 34.589 1.64533 35.191 1.9929L43.366 6.70456C43.9703 7.05334 44.4716 7.55562 44.8193 8.16053C45.167 8.76544 45.3486 9.45149 45.3458 10.1492C45.343 10.8469 45.1558 11.5314 44.8033 12.1335C44.4507 12.7356 43.9454 13.2338 43.3383 13.5777L35.2379 18.17C34.6384 18.5124 33.9595 18.6918 33.2691 18.6902C32.5787 18.6886 31.9007 18.5061 31.3027 18.1609C30.7048 17.8157 30.2078 17.3198 29.8612 16.7226C29.5146 16.1255 29.3305 15.4479 29.3274 14.7575V14.7575Z" fill="#ACA0F7"/>
<path d="M29.3274 14.7575L29.27 7.66523H40.7816C41.3626 7.66548 41.9365 7.79344 42.4626 8.04005C42.9887 8.28666 43.4542 8.64589 43.8261 9.09232C44.198 9.53875 44.4672 10.0615 44.6147 10.6235C44.7622 11.1855 44.7844 11.773 44.6797 12.3446C44.3354 12.8557 43.8759 13.279 43.3383 13.5804L35.2379 18.17C34.6384 18.5124 33.9596 18.6918 33.2691 18.6902C32.5787 18.6886 31.9007 18.5061 31.3028 18.1609C30.7048 17.8156 30.2078 17.3198 29.8612 16.7226C29.5146 16.1255 29.3306 15.4479 29.3274 14.7575V14.7575Z" fill="#8676ED"/>
<path d="M57.2163 26.2015C55.3157 26.2015 53.8381 25.6978 52.7837 24.6904C51.736 23.6763 51.2122 22.2357 51.2122 20.3686C51.2122 18.4411 51.6991 16.9636 52.6729 15.9361C53.6467 14.9018 55.037 14.3847 56.8436 14.3847C58.5629 14.3847 59.8893 14.8346 60.8228 15.7346C61.763 16.6278 62.2332 17.9173 62.2332 19.603V21.3559H55.1914C55.2183 21.9939 55.45 22.4942 55.8865 22.8569C56.3298 23.2196 56.9309 23.4009 57.6898 23.4009C58.3815 23.4009 59.0162 23.3371 59.5938 23.2095C60.1781 23.0752 60.8094 22.8502 61.4877 22.5345V25.3653C60.8698 25.681 60.2318 25.8993 59.5736 26.0201C58.9155 26.141 58.1297 26.2015 57.2163 26.2015ZM56.9846 17.0644C56.5212 17.0644 56.1317 17.2121 55.816 17.5076C55.5071 17.7964 55.3257 18.2531 55.272 18.8777H58.6569C58.6435 18.327 58.4856 17.8871 58.1834 17.558C57.8879 17.2289 57.4883 17.0644 56.9846 17.0644ZM75.3797 15.9562C75.3797 17.6016 74.8928 18.8743 73.919 19.7743C72.9519 20.6675 71.5751 21.1141 69.7887 21.1141H68.6705V26H64.6912V11.2718H69.7887C71.649 11.2718 73.0459 11.6781 73.9795 12.4907C74.913 13.3034 75.3797 14.4585 75.3797 15.9562ZM68.6705 17.8703H69.3958C69.9935 17.8703 70.467 17.7024 70.8162 17.3666C71.1722 17.0308 71.3501 16.5674 71.3501 15.9764C71.3501 14.9824 70.7994 14.4854 69.698 14.4854H68.6705V17.8703ZM91.5082 18.6157C91.5082 21.094 90.9004 22.9778 89.6848 24.2673C88.4692 25.5567 86.6895 26.2015 84.3456 26.2015C82.0353 26.2015 80.2623 25.5534 79.0265 24.2572C77.7975 22.961 77.183 21.0738 77.183 18.5956C77.183 16.1443 77.7942 14.2738 79.0165 12.9844C80.2455 11.6882 82.0286 11.0401 84.3658 11.0401C86.7097 11.0401 88.486 11.6815 89.6949 12.9642C90.9038 14.247 91.5082 16.1308 91.5082 18.6157ZM81.3738 18.6157C81.3738 21.4633 82.3644 22.8871 84.3456 22.8871C85.353 22.8871 86.0985 22.5413 86.582 21.8495C87.0723 21.1578 87.3175 20.0798 87.3175 18.6157C87.3175 17.1449 87.069 16.0603 86.572 15.3618C86.0817 14.6567 85.3463 14.3041 84.3658 14.3041C82.3711 14.3041 81.3738 15.7413 81.3738 18.6157ZM103.799 21.5271C103.799 22.4405 103.567 23.2532 103.103 23.965C102.64 24.6702 101.972 25.2209 101.099 25.6172C100.226 26.0067 99.2014 26.2015 98.0261 26.2015C97.0456 26.2015 96.2229 26.1343 95.558 26C94.8931 25.859 94.2014 25.6172 93.4827 25.2747V21.7286C94.2417 22.1181 95.0308 22.4237 95.8501 22.6454C96.6695 22.8603 97.4217 22.9677 98.1067 22.9677C98.6977 22.9677 99.1309 22.867 99.4063 22.6655C99.6816 22.4573 99.8193 22.192 99.8193 21.8697C99.8193 21.6682 99.7622 21.4936 99.648 21.3458C99.5406 21.1913 99.3626 21.0369 99.1141 20.8824C98.8723 20.7279 98.2209 20.4123 97.1598 19.9354C96.1994 19.4989 95.4774 19.0758 94.9939 18.6661C94.517 18.2564 94.1611 17.7863 93.926 17.2558C93.6977 16.7252 93.5835 16.0972 93.5835 15.3719C93.5835 14.0153 94.0771 12.9575 95.0644 12.1986C96.0516 11.4397 97.4083 11.0602 99.1343 11.0602C100.659 11.0602 102.214 11.4128 103.799 12.118L102.58 15.1906C101.203 14.5593 100.014 14.2436 99.0134 14.2436C98.4962 14.2436 98.1202 14.3343 97.8851 14.5156C97.65 14.697 97.5325 14.9219 97.5325 15.1906C97.5325 15.4794 97.6803 15.7379 97.9758 15.9663C98.278 16.1946 99.0906 16.611 100.414 17.2155C101.683 17.7863 102.563 18.4008 103.053 19.059C103.55 19.7105 103.799 20.5332 103.799 21.5271Z" fill="#2C323F"/>
</svg>
