<svg width="84" height="28" viewBox="0 0 84 28" fill="none" xmlns="http://www.w3.org/2000/svg">
<path d="M9.05418 25.5065L0.42961 10.5203C0.153675 10.0447 0.00816461 9.50473 0.00778274 8.95489C0.00740086 8.40505 0.152161 7.86485 0.427435 7.38887C0.702709 6.9129 1.09874 6.51802 1.57552 6.24413C2.05229 5.97025 2.59291 5.82707 3.14275 5.82905H20.3914C20.9412 5.82716 21.4817 5.97041 21.9584 6.24433C22.4351 6.51825 22.8311 6.91314 23.1063 7.3891C23.3815 7.86506 23.5262 8.40522 23.5258 8.95502C23.5254 9.50482 23.3799 10.0448 23.104 10.5203L14.4794 25.5065C14.205 25.9833 13.8097 26.3793 13.3335 26.6546C12.8573 26.93 12.3169 27.075 11.7668 27.075C11.2167 27.075 10.6763 26.93 10.2001 26.6546C9.72387 26.3793 9.32862 25.9833 9.05418 25.5065V25.5065Z" fill="#7A66FF"/>
<path d="M11.3354 11.4364L11.2764 4.07837C11.2764 4.07107 11.2764 4.06429 11.2764 4.05699C11.2761 3.5074 11.4204 2.9674 11.695 2.49131C11.9696 2.01522 12.3647 1.61981 12.8405 1.34487C13.3164 1.06992 13.8563 0.925118 14.4059 0.92503C14.9555 0.924942 15.4954 1.06957 15.9714 1.34436L22.4347 5.06952C22.9124 5.34528 23.3088 5.7424 23.5837 6.22066C23.8586 6.69891 24.0022 7.24132 24 7.79294C23.9977 8.34455 23.8498 8.88578 23.571 9.36181C23.2923 9.83783 22.8927 10.2317 22.4128 10.5036L16.0084 14.1344C15.5344 14.4051 14.9977 14.547 14.4518 14.5457C13.9059 14.5444 13.3699 14.4001 12.8972 14.1272C12.4244 13.8542 12.0315 13.4622 11.7574 12.9901C11.4834 12.5179 11.3379 11.9822 11.3354 11.4364V11.4364Z" fill="#ACA0F7"/>
<path d="M11.3354 11.4364L11.29 5.82906H20.3914C20.8508 5.82926 21.3045 5.93042 21.7204 6.1254C22.1364 6.32037 22.5044 6.60439 22.7985 6.95735C23.0925 7.31031 23.3053 7.72358 23.422 8.16792C23.5386 8.61226 23.5561 9.07679 23.4733 9.52866C23.2011 9.9328 22.8379 10.2675 22.4128 10.5057L16.0084 14.1344C15.5344 14.4051 14.9977 14.547 14.4518 14.5457C13.906 14.5444 13.3699 14.4001 12.8972 14.1272C12.4244 13.8542 12.0315 13.4622 11.7574 12.9901C11.4834 12.5179 11.3379 11.9822 11.3354 11.4364V11.4364Z" fill="#8676ED"/>
<path d="M35.8705 22.2015C33.9698 22.2015 32.4923 21.6978 31.4379 20.6904C30.3902 19.6763 29.8664 18.2357 29.8664 16.3686C29.8664 14.4411 30.3533 12.9636 31.3271 11.9361C32.3009 10.9018 33.6911 10.3847 35.4977 10.3847C37.217 10.3847 38.5434 10.8346 39.477 11.7346C40.4172 12.6278 40.8873 13.9173 40.8873 15.603V17.3559H33.8456C33.8725 17.9939 34.1042 18.4942 34.5407 18.8569C34.984 19.2196 35.585 19.4009 36.344 19.4009C37.0357 19.4009 37.6704 19.3371 38.2479 19.2095C38.8322 19.0752 39.4635 18.8502 40.1419 18.5345V21.3653C39.524 21.681 38.886 21.8993 38.2278 22.0201C37.5696 22.141 36.7839 22.2015 35.8705 22.2015ZM35.6388 13.0644C35.1754 13.0644 34.7858 13.2121 34.4702 13.5076C34.1613 13.7964 33.9799 14.2531 33.9262 14.8777H37.3111C37.2976 14.327 37.1398 13.8871 36.8376 13.558C36.5421 13.2289 36.1425 13.0644 35.6388 13.0644ZM54.0339 11.9562C54.0339 13.6016 53.547 14.8743 52.5732 15.7743C51.6061 16.6675 50.2293 17.1141 48.4428 17.1141H47.3246V22H43.3454V7.27179H48.4428C50.3032 7.27179 51.7001 7.67811 52.6336 8.49075C53.5672 9.30339 54.0339 10.4585 54.0339 11.9562ZM47.3246 13.8703H48.05C48.6477 13.8703 49.1212 13.7024 49.4704 13.3666C49.8263 13.0308 50.0043 12.5674 50.0043 11.9764C50.0043 10.9824 49.4536 10.4854 48.3522 10.4854H47.3246V13.8703ZM70.1624 14.6157C70.1624 17.094 69.5546 18.9778 68.339 20.2673C67.1234 21.5567 65.3437 22.2015 62.9998 22.2015C60.6895 22.2015 58.9165 21.5534 57.6807 20.2572C56.4517 18.961 55.8372 17.0738 55.8372 14.5956C55.8372 12.1443 56.4483 10.2738 57.6706 8.98438C58.8997 7.68819 60.6828 7.04009 63.0199 7.04009C65.3638 7.04009 67.1402 7.68147 68.3491 8.96423C69.558 10.247 70.1624 12.1308 70.1624 14.6157ZM60.028 14.6157C60.028 17.4633 61.0186 18.8871 62.9998 18.8871C64.0072 18.8871 64.7527 18.5413 65.2362 17.8495C65.7265 17.1578 65.9716 16.0798 65.9716 14.6157C65.9716 13.1449 65.7231 12.0603 65.2261 11.3618C64.7359 10.6567 64.0005 10.3041 63.0199 10.3041C61.0253 10.3041 60.028 11.7413 60.028 14.6157ZM82.4527 17.5271C82.4527 18.4405 82.221 19.2532 81.7576 19.965C81.2942 20.6702 80.626 21.2209 79.7529 21.6172C78.8798 22.0067 77.8556 22.2015 76.6803 22.2015C75.6998 22.2015 74.8771 22.1343 74.2122 22C73.5473 21.859 72.8555 21.6172 72.1369 21.2747V17.7286C72.8958 18.1181 73.685 18.4237 74.5043 18.6454C75.3237 18.8603 76.0759 18.9677 76.7609 18.9677C77.3519 18.9677 77.7851 18.867 78.0604 18.6655C78.3358 18.4573 78.4735 18.192 78.4735 17.8697C78.4735 17.6682 78.4164 17.4936 78.3022 17.3458C78.1948 17.1913 78.0168 17.0369 77.7683 16.8824C77.5265 16.7279 76.8751 16.4123 75.8139 15.9354C74.8535 15.4989 74.1316 15.0758 73.648 14.6661C73.1712 14.2564 72.8152 13.7863 72.5802 13.2558C72.3518 12.7252 72.2377 12.0972 72.2377 11.3719C72.2377 10.0153 72.7313 8.95751 73.7185 8.1986C74.7058 7.43969 76.0624 7.06024 77.7884 7.06024C79.313 7.06024 80.8677 7.41283 82.4527 8.11801L81.2338 11.1906C79.857 10.5593 78.6682 10.2436 77.6676 10.2436C77.1504 10.2436 76.7743 10.3343 76.5393 10.5156C76.3042 10.697 76.1867 10.9219 76.1867 11.1906C76.1867 11.4794 76.3344 11.7379 76.6299 11.9663C76.9322 12.1946 77.7448 12.611 79.0678 13.2155C80.3372 13.7863 81.217 14.4008 81.7072 15.059C82.2042 15.7105 82.4527 16.5332 82.4527 17.5271Z" fill="#2C323F"/>
</svg>
