<svg width="138" height="46" viewBox="0 0 138 46" fill="none" xmlns="http://www.w3.org/2000/svg">
<path d="M14.8619 41.9037L0.693003 17.2835C0.239681 16.5022 0.0006286 15.6151 1.23801e-06 14.7118C-0.000626124 13.8084 0.237194 12.921 0.68943 12.139C1.14167 11.3571 1.79229 10.7083 2.57557 10.2584C3.35884 9.80842 4.247 9.57319 5.15031 9.57645H33.4873C34.3906 9.57334 35.2786 9.80868 36.0618 10.2587C36.8449 10.7087 37.4954 11.3575 37.9476 12.1394C38.3997 12.9213 38.6375 13.8087 38.6368 14.712C38.6361 15.6152 38.3971 16.5023 37.9438 17.2835L23.7748 41.9037C23.324 42.687 22.6747 43.3375 21.8923 43.7899C21.1099 44.2423 20.2221 44.4805 19.3184 44.4805C18.4147 44.4805 17.5269 44.2423 16.7445 43.7899C15.9621 43.3375 15.3128 42.687 14.8619 41.9037Z" fill="#7A66FF"/>
<path d="M18.6095 18.7884L18.5127 6.70027C18.5127 6.68827 18.5127 6.67713 18.5127 6.66513C18.5121 5.76223 18.7493 4.8751 19.2004 4.09295C19.6514 3.3108 20.3005 2.66121 21.0823 2.20951C21.8641 1.7578 22.751 1.51992 23.6539 1.51978C24.5568 1.51963 25.4439 1.75723 26.2258 2.20868L36.8441 8.32859C37.629 8.78162 38.2802 9.43403 38.7318 10.2197C39.1834 11.0054 39.4193 11.8965 39.4156 12.8028C39.412 13.709 39.1689 14.5982 38.711 15.3802C38.2531 16.1622 37.5966 16.8094 36.8081 17.2561L26.2866 23.2208C25.5079 23.6657 24.6262 23.8987 23.7294 23.8966C22.8326 23.8945 21.952 23.6575 21.1753 23.209C20.3987 22.7606 19.7531 22.1165 19.3029 21.3409C18.8527 20.5653 18.6137 19.6852 18.6095 18.7884Z" fill="#ACA0F7"/>
<path d="M18.6097 18.7884L18.5352 9.57642H33.4874C34.2421 9.57674 34.9875 9.74295 35.6709 10.0633C36.3542 10.3836 36.9588 10.8502 37.4419 11.43C37.9249 12.0099 38.2746 12.6889 38.4662 13.4188C38.6578 14.1488 38.6866 14.912 38.5506 15.6543C38.1034 16.3183 37.5066 16.8681 36.8083 17.2595L26.2868 23.2209C25.5081 23.6657 24.6264 23.8987 23.7296 23.8966C22.8328 23.8945 21.9522 23.6575 21.1755 23.2091C20.3989 22.7607 19.7533 22.1165 19.3031 21.3409C18.8529 20.5653 18.6138 19.6852 18.6097 18.7884Z" fill="#8676ED"/>
<path d="M57.2505 34.2821C54.5891 34.2821 52.5201 33.5768 51.0436 32.1662C49.5766 30.7461 48.843 28.7289 48.843 26.1145C48.843 23.4155 49.5248 21.3465 50.8885 19.9077C52.2521 18.4594 54.1988 17.7353 56.7285 17.7353C59.136 17.7353 60.9934 18.3654 62.3006 19.6255C63.6172 20.8763 64.2755 22.6819 64.2755 25.0424V27.4969H54.4151C54.4527 28.3903 54.7771 29.091 55.3884 29.5988C56.0091 30.1066 56.8508 30.3605 57.9135 30.3605C58.8821 30.3605 59.7708 30.2712 60.5796 30.0925C61.3978 29.9044 62.2818 29.5894 63.2316 29.1474V33.1113C62.3664 33.5533 61.473 33.8589 60.5514 34.0282C59.6298 34.1975 58.5295 34.2821 57.2505 34.2821ZM56.926 21.4876C56.2771 21.4876 55.7317 21.6945 55.2897 22.1083C54.8571 22.5127 54.6032 23.1521 54.5279 24.0267H59.2677C59.2489 23.2556 59.0279 22.6396 58.6047 22.1788C58.1909 21.718 57.6314 21.4876 56.926 21.4876ZM82.6844 19.9359C82.6844 22.2399 82.0026 24.022 80.639 25.2822C79.2847 26.533 77.3569 27.1584 74.8553 27.1584H73.2895V34H67.7175V13.3764H74.8553C77.4603 13.3764 79.4164 13.9453 80.7236 15.0833C82.0308 16.2212 82.6844 17.8387 82.6844 19.9359ZM73.2895 22.6161H74.3052C75.1422 22.6161 75.8052 22.381 76.2942 21.9108C76.7926 21.4406 77.0418 20.7917 77.0418 19.9641C77.0418 18.5723 76.2707 17.8763 74.7284 17.8763H73.2895V22.6161ZM105.269 23.66C105.269 27.1302 104.418 29.7681 102.716 31.5737C101.013 33.3793 98.5212 34.2821 95.2391 34.2821C92.0041 34.2821 89.5213 33.3746 87.7909 31.5596C86.0699 29.7446 85.2095 27.1019 85.2095 23.6318C85.2095 20.1992 86.0652 17.5801 87.7768 15.7745C89.4978 13.9594 91.9947 13.0519 95.2673 13.0519C98.5494 13.0519 101.037 13.95 102.73 15.7463C104.422 17.5425 105.269 20.1804 105.269 23.66ZM91.0777 23.66C91.0777 27.6474 92.4649 29.6411 95.2391 29.6411C96.6498 29.6411 97.6937 29.1568 98.3708 28.1881C99.0573 27.2195 99.4005 25.7101 99.4005 23.66C99.4005 21.6004 99.0526 20.0816 98.3567 19.1036C97.6701 18.1161 96.6404 17.6224 95.2673 17.6224C92.4743 17.6224 91.0777 19.6349 91.0777 23.66ZM122.479 27.7367C122.479 29.0157 122.154 30.1536 121.505 31.1505C120.856 32.1379 119.921 32.9091 118.698 33.464C117.476 34.0094 116.041 34.2821 114.396 34.2821C113.023 34.2821 111.871 34.1881 110.94 34C110.009 33.8025 109.04 33.464 108.034 32.9843V28.0189C109.096 28.5643 110.201 28.9922 111.349 29.3026C112.496 29.6035 113.549 29.754 114.509 29.754C115.336 29.754 115.943 29.6129 116.328 29.3308C116.714 29.0392 116.907 28.6678 116.907 28.2164C116.907 27.9342 116.827 27.6897 116.667 27.4828C116.516 27.2665 116.267 27.0502 115.919 26.8339C115.581 26.6176 114.668 26.1756 113.183 25.5079C111.838 24.8966 110.827 24.3042 110.15 23.7305C109.482 23.1568 108.984 22.4985 108.654 21.7556C108.335 21.0127 108.175 20.1334 108.175 19.1177C108.175 17.218 108.866 15.7369 110.248 14.6742C111.631 13.6115 113.53 13.0801 115.947 13.0801C118.082 13.0801 120.259 13.5739 122.479 14.5613L120.772 18.8638C118.844 17.9798 117.179 17.5378 115.778 17.5378C115.054 17.5378 114.527 17.6647 114.198 17.9187C113.869 18.1726 113.704 18.4876 113.704 18.8638C113.704 19.2682 113.911 19.6302 114.325 19.95C114.748 20.2697 115.886 20.8528 117.739 21.6992C119.516 22.4985 120.748 23.359 121.435 24.2807C122.131 25.1929 122.479 26.3449 122.479 27.7367Z" fill="#2C323F"/>
</svg>
