<svg width="25" height="25" viewBox="0 0 25 25" fill="none" xmlns="http://www.w3.org/2000/svg">
<path d="M9.72246 22.854L2.05486 9.53061C1.80954 9.10779 1.68018 8.62771 1.67984 8.13888C1.6795 7.65005 1.8082 7.16979 2.05293 6.74663C2.29766 6.32346 2.64975 5.9724 3.07362 5.72891C3.49749 5.48541 3.97813 5.35812 4.46696 5.35988H19.8017C20.2905 5.3582 20.7711 5.48555 21.1949 5.72908C21.6187 5.97261 21.9707 6.32368 22.2154 6.74683C22.46 7.16997 22.5887 7.6502 22.5883 8.139C22.588 8.62779 22.4586 9.10783 22.2133 9.53061L14.5457 22.854C14.3017 23.2778 13.9504 23.6299 13.527 23.8747C13.1036 24.1195 12.6232 24.2484 12.1341 24.2484C11.645 24.2484 11.1646 24.1195 10.7412 23.8747C10.3178 23.6299 9.96645 23.2778 9.72246 22.854V22.854Z" fill="#1565C0"/>
<path d="M11.7504 10.345L11.698 3.80345C11.698 3.79696 11.698 3.79093 11.698 3.78444C11.6977 3.29583 11.8261 2.81575 12.0702 2.39249C12.3143 1.96922 12.6655 1.61769 13.0886 1.37325C13.5117 1.12881 13.9916 1.00008 14.4802 1C14.9688 0.999922 15.4489 1.1285 15.872 1.37281L21.6182 4.68463C22.0429 4.92978 22.3953 5.28284 22.6397 5.70803C22.8841 6.13322 23.0117 6.61544 23.0098 7.10585C23.0078 7.59626 22.8762 8.07743 22.6284 8.50064C22.3806 8.92385 22.0254 9.27405 21.5987 9.51577L15.9049 12.7437C15.4835 12.9844 15.0064 13.1104 14.5211 13.1093C14.0358 13.1082 13.5592 12.9799 13.1389 12.7373C12.7186 12.4946 12.3693 12.146 12.1257 11.7263C11.882 11.3066 11.7527 10.8303 11.7504 10.345V10.345Z" fill="#83C3F7"/>
<path d="M11.7505 10.345L11.7102 5.35988H19.8017C20.2101 5.36006 20.6135 5.45 20.9833 5.62334C21.3531 5.79668 21.6802 6.04918 21.9417 6.36298C22.2031 6.67677 22.3923 7.04419 22.496 7.43922C22.5997 7.83425 22.6153 8.24725 22.5416 8.64897C22.2996 9.00828 21.9767 9.3058 21.5988 9.51762L15.905 12.7436C15.4836 12.9844 15.0065 13.1104 14.5212 13.1093C14.0359 13.1082 13.5593 12.9799 13.139 12.7373C12.7187 12.4946 12.3694 12.146 12.1257 11.7263C11.8821 11.3066 11.7528 10.8303 11.7505 10.345V10.345Z" fill="#54A4EA"/>
</svg>
