<svg width="46" height="51" viewBox="0 0 46 51" fill="none" xmlns="http://www.w3.org/2000/svg">
<path d="M17.341 47.139L0.808019 18.411C0.279061 17.4993 0.000123129 16.4641 -0.000608907 15.4101C-0.00134094 14.3561 0.276159 13.3205 0.80385 12.4081C1.33154 11.4957 2.09072 10.7387 3.00468 10.2137C3.91864 9.68866 4.955 9.41419 6.00902 9.41799H39.074C40.128 9.41436 41.1642 9.68897 42.078 10.2141C42.9918 10.7392 43.7509 11.4962 44.2784 12.4085C44.806 13.3209 45.0834 14.3564 45.0826 15.4104C45.0819 16.4643 44.8029 17.4994 44.274 18.411L27.741 47.139C27.2149 48.0529 26.4573 48.812 25.5444 49.3399C24.6314 49.8677 23.5955 50.1457 22.541 50.1457C21.4865 50.1457 20.4506 49.8677 19.5377 49.3399C18.6248 48.812 17.8671 48.0529 17.341 47.139V47.139Z" fill="#1565C0"/>
<path d="M21.714 20.167L21.601 6.062C21.601 6.048 21.601 6.035 21.601 6.021C21.6003 4.96745 21.8771 3.9323 22.4034 3.01965C22.9298 2.107 23.6871 1.34903 24.5993 0.82196C25.5116 0.294895 26.5465 0.0173197 27.6001 0.017151C28.6536 0.0169822 29.6886 0.294226 30.601 0.820999L42.991 7.962C43.9068 8.49061 44.6667 9.25188 45.1936 10.1687C45.7205 11.0855 45.9958 12.1253 45.9916 13.1827C45.9873 14.2401 45.7036 15.2776 45.1693 16.1902C44.635 17.1027 43.8691 17.8578 42.949 18.379L30.672 25.339C29.7634 25.858 28.7346 26.1299 27.6881 26.1275C26.6417 26.1251 25.6142 25.8485 24.7079 25.3252C23.8017 24.802 23.0484 24.0504 22.5231 23.1454C21.9978 22.2403 21.7188 21.2134 21.714 20.167V20.167Z" fill="#83C3F7"/>
<path d="M21.714 20.167L21.627 9.418H39.074C39.9546 9.41838 40.8244 9.61231 41.6218 9.98608C42.4192 10.3598 43.1246 10.9043 43.6883 11.5809C44.2519 12.2575 44.66 13.0497 44.8836 13.9015C45.1071 14.7533 45.1407 15.6438 44.982 16.51C44.4602 17.2847 43.7638 17.9263 42.949 18.383L30.672 25.339C29.7634 25.858 28.7346 26.1299 27.6881 26.1275C26.6417 26.1251 25.6142 25.8485 24.7079 25.3252C23.8017 24.802 23.0484 24.0504 22.5231 23.1454C21.9978 22.2403 21.7188 21.2134 21.714 20.167V20.167Z" fill="#54A4EA"/>
</svg>
